<svg width="30" height="30" viewBox="0 0 30 30" fill="none" xmlns="http://www.w3.org/2000/svg">
<path fill-rule="evenodd" clip-rule="evenodd" d="M15 0C9.82234 0 5.625 4.19734 5.625 9.375V14.901C5.625 14.9936 5.59761 15.0841 5.54627 15.1611L2.3529 19.9511C2.04127 20.4186 1.875 20.9678 1.875 21.5295C1.875 23.1011 3.14897 24.375 4.72048 24.375H25.2795C26.8511 24.375 28.125 23.1011 28.125 21.5295C28.125 20.9678 27.9587 20.4186 27.6471 19.9511L24.4538 15.1611C24.4024 15.0841 24.375 14.9936 24.375 14.901V9.375C24.375 4.19734 20.1776 0 15 0ZM8.4375 9.375C8.4375 5.75062 11.3756 2.8125 15 2.8125C18.6244 2.8125 21.5625 5.75062 21.5625 9.375V14.901C21.5625 15.5489 21.7543 16.1821 22.1136 16.7212L25.3069 21.5111C25.3106 21.5166 25.3125 21.5229 25.3125 21.5295C25.3125 21.5337 25.3116 21.5387 25.3116 21.5387L25.3104 21.5419C25.3104 21.5419 25.3069 21.5488 25.3027 21.5527C25.2988 21.5569 25.2919 21.5604 25.2919 21.5604C25.2919 21.5604 25.2866 21.5625 25.2795 21.5625H4.72048C4.71334 21.5625 4.70807 21.5604 4.70807 21.5604C4.70807 21.5604 4.70117 21.5569 4.69716 21.5527C4.69316 21.5488 4.68951 21.5419 4.68951 21.5419C4.68951 21.5419 4.6875 21.5366 4.6875 21.5295C4.6875 21.5229 4.68943 21.5166 4.69303 21.5111L7.88642 16.7212C8.24574 16.1821 8.4375 15.5489 8.4375 14.901V9.375Z" fill="#24292E"/>
<path d="M18.7211 26.7178C18.4908 28.5681 16.9126 30 15 30C13.0873 30 11.5091 28.5681 11.2789 26.7178C11.2469 26.4609 11.4599 26.25 11.7187 26.25H18.2812C18.5401 26.25 18.753 26.4609 18.7211 26.7178Z" fill="#24292E"/>
</svg>
