<svg width="50" height="50" viewBox="0 0 50 50" fill="none" xmlns="http://www.w3.org/2000/svg">
<path fill-rule="evenodd" clip-rule="evenodd" d="M32.8123 15.6251C32.8123 17.6971 31.9892 19.6842 30.5241 21.1493C29.059 22.6145 27.0718 23.4376 24.9998 23.4376C22.9278 23.4376 20.9407 22.6145 19.4756 21.1493C18.0104 19.6842 17.1873 17.6971 17.1873 15.6251C17.1873 13.5531 18.0104 11.5659 19.4756 10.1008C20.9407 8.63569 22.9278 7.8126 24.9998 7.8126C27.0718 7.8126 29.059 8.63569 30.5241 10.1008C31.9892 11.5659 32.8123 13.5531 32.8123 15.6251ZM33.003 25.2282C34.9758 23.5833 36.3939 21.3707 37.0648 18.8912C37.7355 16.4116 37.6258 13.7857 36.7511 11.3707C35.8764 8.9556 34.2789 6.86863 32.1761 5.39366C30.0731 3.91872 27.5669 3.12744 24.9983 3.12744C22.4297 3.12744 19.9234 3.91872 17.8205 5.39366C15.7176 6.86863 14.1201 8.9556 13.2454 11.3707C12.3707 13.7857 12.2612 16.4116 12.9319 18.8912C13.6025 21.3707 15.0207 23.5833 16.9936 25.2282C13.9173 26.6826 11.2944 28.9462 9.40577 31.7767C7.51711 34.6073 6.43377 37.8979 6.27171 41.297C6.25664 41.9095 6.48196 42.5035 6.89946 42.9517C7.31692 43.4001 7.89336 43.6673 8.50536 43.6957C9.11733 43.7245 9.71617 43.5123 10.1736 43.1048C10.6311 42.6973 10.9109 42.127 10.953 41.5157C11.1233 37.9048 12.6776 34.4982 15.2933 32.0032C17.9089 29.508 21.385 28.1159 24.9998 28.1159C28.6147 28.1159 32.0908 29.508 34.7064 32.0032C37.322 34.4982 38.8764 37.9048 39.0467 41.5157C39.0545 41.8279 39.1242 42.1351 39.2523 42.4198C39.3805 42.7045 39.5642 42.9607 39.7926 43.1732C40.0211 43.386 40.2898 43.551 40.5826 43.6585C40.8758 43.766 41.1873 43.8139 41.4992 43.7992C41.8111 43.7848 42.1167 43.7079 42.3986 43.5735C42.6801 43.4392 42.9323 43.2501 43.1398 43.017C43.3476 42.7838 43.5064 42.5117 43.6073 42.2164C43.7086 41.921 43.7495 41.6082 43.728 41.297C43.5655 37.8976 42.4817 34.6067 40.5926 31.776C38.7033 28.9456 36.0798 26.6822 33.003 25.2282Z" fill="#24292E"/>
</svg>
