<svg width="50" height="50" viewBox="0 0 50 50" fill="none" xmlns="http://www.w3.org/2000/svg">
<path fill-rule="evenodd" clip-rule="evenodd" d="M32.8126 15.6251C32.8126 17.6971 31.9894 19.6842 30.5244 21.1493C29.0592 22.6145 27.0721 23.4376 25.0001 23.4376C22.9281 23.4376 20.941 22.6145 19.4758 21.1493C18.0107 19.6842 17.1876 17.6971 17.1876 15.6251C17.1876 13.5531 18.0107 11.5659 19.4758 10.1008C20.941 8.63569 22.9281 7.8126 25.0001 7.8126C27.0721 7.8126 29.0592 8.63569 30.5244 10.1008C31.9894 11.5659 32.8126 13.5531 32.8126 15.6251ZM33.0032 25.2282C34.976 23.5833 36.3941 21.3707 37.0651 18.8912C37.7357 16.4116 37.626 13.7857 36.7513 11.3707C35.8766 8.9556 34.2791 6.86863 32.1763 5.39366C30.0734 3.91872 27.5671 3.12744 24.9985 3.12744C22.4299 3.12744 19.9237 3.91872 17.8208 5.39366C15.7179 6.86863 14.1204 8.9556 13.2457 11.3707C12.3709 13.7857 12.2614 16.4116 12.9321 18.8912C13.6028 21.3707 15.021 23.5833 16.9938 25.2282C13.9175 26.6826 11.2947 28.9462 9.40601 31.7767C7.51736 34.6073 6.43401 37.8979 6.27195 41.297C6.25689 41.9095 6.4822 42.5035 6.8997 42.9517C7.31717 43.4001 7.89361 43.6673 8.50561 43.6957C9.11757 43.7245 9.71642 43.5123 10.1739 43.1048C10.6314 42.6973 10.9111 42.127 10.9532 41.5157C11.1236 37.9048 12.6779 34.4982 15.2935 32.0032C17.9092 29.508 21.3852 28.1159 25.0001 28.1159C28.615 28.1159 32.091 29.508 34.7066 32.0032C37.3223 34.4982 38.8766 37.9048 39.0469 41.5157C39.0548 41.8279 39.1244 42.1351 39.2526 42.4198C39.3807 42.7045 39.5644 42.9607 39.7929 43.1732C40.0213 43.386 40.2901 43.551 40.5829 43.6585C40.876 43.766 41.1876 43.8139 41.4995 43.7992C41.8113 43.7848 42.117 43.7079 42.3988 43.5735C42.6804 43.4392 42.9326 43.2501 43.1401 43.017C43.3479 42.7838 43.5066 42.5117 43.6076 42.2164C43.7088 41.921 43.7498 41.6082 43.7282 41.297C43.5657 37.8976 42.4819 34.6067 40.5929 31.776C38.7035 28.9456 36.0801 26.6822 33.0032 25.2282Z" fill="#24292E"/>
</svg>
