<svg width="50" height="50" viewBox="0 0 50 50" fill="none" xmlns="http://www.w3.org/2000/svg">
<path fill-rule="evenodd" clip-rule="evenodd" d="M32.8125 15.6251C32.8125 17.6971 31.9893 19.6842 30.5242 21.1493C29.0591 22.6145 27.072 23.4376 25 23.4376C22.928 23.4376 20.9408 22.6145 19.4757 21.1493C18.0105 19.6842 17.1875 17.6971 17.1875 15.6251C17.1875 13.5531 18.0105 11.5659 19.4757 10.1008C20.9408 8.63569 22.928 7.8126 25 7.8126C27.072 7.8126 29.0591 8.63569 30.5242 10.1008C31.9893 11.5659 32.8125 13.5531 32.8125 15.6251ZM33.0031 25.2282C34.9759 23.5833 36.394 21.3707 37.065 18.8912C37.7356 16.4116 37.6259 13.7857 36.7512 11.3707C35.8765 8.9556 34.279 6.86863 32.1762 5.39366C30.0732 3.91872 27.567 3.12744 24.9984 3.12744C22.4298 3.12744 19.9235 3.91872 17.8206 5.39366C15.7177 6.86863 14.1202 8.9556 13.2455 11.3707C12.3708 13.7857 12.2613 16.4116 12.932 18.8912C13.6026 21.3707 15.0209 23.5833 16.9937 25.2282C13.9174 26.6826 11.2945 28.9462 9.40589 31.7767C7.51723 34.6073 6.43389 37.8979 6.27183 41.297C6.25677 41.9095 6.48208 42.5035 6.89958 42.9517C7.31705 43.4001 7.89348 43.6673 8.50548 43.6957C9.11745 43.7245 9.7163 43.5123 10.1738 43.1048C10.6312 42.6973 10.911 42.127 10.9531 41.5157C11.1235 37.9048 12.6778 34.4982 15.2934 32.0032C17.909 29.508 21.3851 28.1159 25 28.1159C28.6148 28.1159 32.0909 29.508 34.7065 32.0032C37.3221 34.4982 38.8765 37.9048 39.0468 41.5157C39.0546 41.8279 39.1243 42.1351 39.2525 42.4198C39.3806 42.7045 39.5643 42.9607 39.7928 43.1732C40.0212 43.386 40.29 43.551 40.5828 43.6585C40.8759 43.766 41.1875 43.8139 41.4993 43.7992C41.8112 43.7848 42.1168 43.7079 42.3987 43.5735C42.6803 43.4392 42.9325 43.2501 43.14 43.017C43.3478 42.7838 43.5065 42.5117 43.6075 42.2164C43.7087 41.921 43.7496 41.6082 43.7281 41.297C43.5656 37.8976 42.4818 34.6067 40.5928 31.776C38.7034 28.9456 36.08 26.6822 33.0031 25.2282Z" fill="#24292E"/>
</svg>
